<?xml version="1.0" encoding="iso-8859-1"?>
<!-- Generator: Adobe Illustrator 18.0.0, SVG Export Plug-In . SVG Version: 6.00 Build 0)  -->
<!DOCTYPE svg PUBLIC "-//W3C//DTD SVG 1.1//EN" "http://www.w3.org/Graphics/SVG/1.1/DTD/svg11.dtd">
<svg version="1.1" id="Capa_1" xmlns="http://www.w3.org/2000/svg" xmlns:xlink="http://www.w3.org/1999/xlink" x="0px" y="0px"
	 viewBox="0 0 392.408 392.408" style="enable-background:new 0 0 392.408 392.408;" xml:space="preserve">
<g>
	<polygon points="78.767,78.408 177.674,108.443 182.614,92.176 76.654,60 29.562,87.175 38.059,101.899 	"/>
	<polygon points="78.767,108.408 177.674,138.443 182.614,122.176 76.654,90 29.562,117.175 38.059,131.899 	"/>
	<polygon points="78.767,138.408 177.674,168.443 182.614,152.176 76.654,120 29.562,147.175 38.059,161.899 	"/>
	<polygon points="78.767,168.408 177.674,198.443 182.614,182.176 76.654,150 29.562,177.175 38.059,191.899 	"/>
	<polygon points="78.767,198.408 177.674,228.443 182.614,212.176 76.654,180 29.562,207.174 38.058,221.898 	"/>
	<polygon points="78.767,228.408 177.674,258.443 182.614,242.176 76.654,210 29.562,237.174 38.058,251.898 	"/>
	<polygon points="78.767,258.408 177.674,288.443 182.614,272.176 76.654,240 29.562,267.174 38.058,281.898 	"/>
	<polygon points="78.767,288.408 177.674,318.443 182.614,302.176 76.654,270 29.562,297.174 38.058,311.898 	"/>
	<polygon points="240.333,78.408 339.24,108.443 344.179,92.176 238.219,60 191.128,87.175 199.624,101.899 	"/>
	<polygon points="240.333,48.408 339.24,78.443 344.179,62.176 238.219,30 191.128,57.175 199.624,71.899 	"/>
	<polygon points="240.333,18.408 339.24,48.443 344.179,32.176 238.219,0 191.128,27.175 199.624,41.899 	"/>
	<polygon points="240.333,108.408 339.24,138.443 344.179,122.176 238.219,90 191.128,117.175 199.624,131.899 	"/>
	<polygon points="240.333,138.408 339.24,168.443 344.179,152.176 238.219,120 191.128,147.175 199.624,161.899 	"/>
	<polygon points="240.333,168.408 339.24,198.443 344.179,182.176 238.219,150 191.128,177.175 199.624,191.899 	"/>
	<polygon points="240.333,198.408 339.24,228.443 344.179,212.176 238.219,180 191.128,207.174 199.624,221.898 	"/>
	<polygon points="240.333,228.408 339.24,258.443 344.179,242.176 238.219,210 191.128,237.174 199.624,251.898 	"/>
	<polygon points="240.333,258.408 339.24,288.443 344.179,272.176 238.219,240 191.128,267.174 199.624,281.898 	"/>
	<polygon points="240.333,288.408 339.24,318.443 344.179,302.176 238.219,270 191.128,297.174 199.624,311.898 	"/>
	<path d="M339.423,376.149v-28.311l4.756-15.662L238.219,300l-47.092,27.174l4.756,8.241v40.734h-18.025v-28.311l4.756-15.662
		L76.654,300l-47.092,27.174l4.755,8.241v40.734H9.204v16.259h374v-16.259H339.423z M101.087,376.149v-34.564l51.921,12.461v22.103
		H101.087z M262.654,376.149v-34.564l51.92,12.461v22.103H262.654z"/>
</g>
<g>
</g>
<g>
</g>
<g>
</g>
<g>
</g>
<g>
</g>
<g>
</g>
<g>
</g>
<g>
</g>
<g>
</g>
<g>
</g>
<g>
</g>
<g>
</g>
<g>
</g>
<g>
</g>
<g>
</g>
</svg>
